<mxfile host="app.diagrams.net" modified="2023-10-09T17:09:09.113Z" agent="Mozilla/5.0 (Windows NT 10.0; Win64; x64; rv:109.0) Gecko/20100101 Firefox/118.0" etag="KvX_q8GbrsgSs4r1whhH" version="22.0.4" type="device">
  <diagram name="Page-1" id="kiCsJUEcmoN_zqpLERS2">
    <mxGraphModel dx="1050" dy="530" grid="1" gridSize="10" guides="1" tooltips="1" connect="1" arrows="1" fold="1" page="1" pageScale="1" pageWidth="850" pageHeight="1100" math="0" shadow="0">
      <root>
        <mxCell id="0" />
        <mxCell id="1" parent="0" />
        <mxCell id="dchZFHqBZxOBtuKonO68-1" value="&lt;font size=&quot;1&quot;&gt;&lt;b style=&quot;font-size: 18px;&quot;&gt;Sensores&lt;/b&gt;&lt;/font&gt;" style="text;html=1;strokeColor=none;fillColor=none;align=center;verticalAlign=middle;whiteSpace=wrap;rounded=0;" vertex="1" parent="1">
          <mxGeometry x="60" y="170" width="320" height="30" as="geometry" />
        </mxCell>
        <mxCell id="dchZFHqBZxOBtuKonO68-16" value="HTTP" style="edgeStyle=orthogonalEdgeStyle;rounded=0;orthogonalLoop=1;jettySize=auto;html=1;exitX=0.5;exitY=1;exitDx=0;exitDy=0;" edge="1" parent="1" source="dchZFHqBZxOBtuKonO68-11" target="dchZFHqBZxOBtuKonO68-15">
          <mxGeometry relative="1" as="geometry" />
        </mxCell>
        <mxCell id="dchZFHqBZxOBtuKonO68-11" value="" style="rounded=0;whiteSpace=wrap;html=1;" vertex="1" parent="1">
          <mxGeometry x="140" y="200" width="740" height="60" as="geometry" />
        </mxCell>
        <mxCell id="dchZFHqBZxOBtuKonO68-14" value="&lt;div align=&quot;justify&quot;&gt;&lt;b&gt;POST&lt;/b&gt;&lt;b&gt;-&amp;gt; URL = http//127.0.0.1/load/&amp;lt;Public Address&amp;gt;/ -&amp;gt; Datos :{&#39;time&#39;: &amp;lt;Fecha actual&amp;gt;, &#39;lat&#39;: 8.52 , &#39;long&#39;:85.2,&#39;temp: 20, &#39;hum&#39;:8}&lt;/b&gt;&lt;br&gt;&lt;/div&gt; " style="text;html=1;strokeColor=none;fillColor=none;align=center;verticalAlign=middle;whiteSpace=wrap;rounded=0;" vertex="1" parent="1">
          <mxGeometry x="155" y="215" width="710" height="30" as="geometry" />
        </mxCell>
        <mxCell id="dchZFHqBZxOBtuKonO68-15" value="&lt;b&gt;API-REST&lt;/b&gt;" style="verticalLabelPosition=bottom;sketch=0;aspect=fixed;html=1;verticalAlign=top;strokeColor=none;align=center;outlineConnect=0;shape=mxgraph.citrix.command_center;" vertex="1" parent="1">
          <mxGeometry x="473" y="330" width="75.5" height="96" as="geometry" />
        </mxCell>
      </root>
    </mxGraphModel>
  </diagram>
</mxfile>
